HIERARCHY
ROOT SpineBase
{
  OFFSET 0.000000 0.000000 0.000000
  CHANNELS 6 Xposition Yposition Zposition Zrotation Xrotation Yrotation
  JOINT SpineMid
  {
    OFFSET 0.000000 32.365739 0.000000
    CHANNELS 3 Zrotation Xrotation Yrotation
    JOINT SpineShoulder
    {
      OFFSET -0.232183 24.134409 -0.703970
      CHANNELS 3 Zrotation Xrotation Yrotation
      JOINT Neck
      {
        OFFSET -0.151439 8.019746 -0.543196
        CHANNELS 3 Zrotation Xrotation Yrotation
        JOINT Head
        {
          OFFSET -0.110010 12.005610 2.971405
          CHANNELS 3 Zrotation Xrotation Yrotation
          End Site
          {
            OFFSET 0 0 0
          }
        }
      }
      JOINT ShoulderLeft
      {
        OFFSET -16.112744 -6.849936 -7.196151
        CHANNELS 3 Zrotation Xrotation Yrotation
        JOINT ElbowLeft
        {
          OFFSET -6.299059 -28.132610 -0.099958
          CHANNELS 3 Zrotation Xrotation Yrotation
          JOINT WristLeft
          {
            OFFSET -2.316112 -22.660548 2.734049
            CHANNELS 3 Zrotation Xrotation Yrotation
            JOINT HandLeft
            {
              OFFSET 1.012020 -3.383145 0.782245
              CHANNELS 3 Zrotation Xrotation Yrotation
              JOINT HandTipLeft
              {
                OFFSET -0.605616 -5.606609 -0.818797
                CHANNELS 3 Zrotation Xrotation Yrotation
                End Site
                {
                  OFFSET 0 0 0
                }
              }
              JOINT ThumbLeft
              {
                OFFSET -2.869239 0.186450 -3.086899
                CHANNELS 3 Zrotation Xrotation Yrotation
                End Site
                {
                  OFFSET 0 0 0
                }
              }
            }
          }
        }
      }
      JOINT ShoulderRight
      {
        OFFSET 14.508672 -5.290460 -3.968485
        CHANNELS 3 Zrotation Xrotation Yrotation
        JOINT ElbowRight
        {
          OFFSET 6.824411 -30.041528 3.539476
          CHANNELS 3 Zrotation Xrotation Yrotation
          JOINT WristRight
          {
            OFFSET 0.642658 -22.672602 2.486288
            CHANNELS 3 Zrotation Xrotation Yrotation
            JOINT HandRight
            {
              OFFSET -1.077519 -2.672940 0.694827
              CHANNELS 3 Zrotation Xrotation Yrotation
              JOINT HandTipRight
              {
                OFFSET -0.735554 -4.230446 -1.524331
                CHANNELS 3 Zrotation Xrotation Yrotation
                End Site
                {
                  OFFSET 0 0 0
                }
              }
              JOINT ThumbRight
              {
                OFFSET -2.866820 2.169228 -2.215780
                CHANNELS 3 Zrotation Xrotation Yrotation
                End Site
                {
                  OFFSET 0 0 0
                }
              }
            }
          }
        }
      }
    }
  }
  JOINT HipLeft
  {
    OFFSET -6.960041 1.446845 -3.751777
    CHANNELS 3 Zrotation Xrotation Yrotation
    JOINT KneeLeft
    {
      OFFSET -4.574561 -36.591052 -2.962746
      CHANNELS 3 Zrotation Xrotation Yrotation
      JOINT AnkleLeft
      {
        OFFSET 0.906419 -34.328943 -2.842966
        CHANNELS 3 Zrotation Xrotation Yrotation
        JOINT FootLeft
        {
          OFFSET 0.325438 -2.507911 -12.253163
          CHANNELS 3 Zrotation Xrotation Yrotation
          End Site
          {
            OFFSET 0 0 0
          }
        }
      }
    }
  }
  JOINT HipRight
  {
    OFFSET 5.506695 1.331564 -2.504274
    CHANNELS 3 Zrotation Xrotation Yrotation
    JOINT KneeRight
    {
      OFFSET 2.702972 -36.708889 -1.589598
      CHANNELS 3 Zrotation Xrotation Yrotation
      JOINT AnkleRight
      {
        OFFSET -0.077294 -34.350630 -3.653879
        CHANNELS 3 Zrotation Xrotation Yrotation
        JOINT FootRight
        {
          OFFSET -2.198545 -7.262392 4.414228
          CHANNELS 3 Zrotation Xrotation Yrotation
          End Site
          {
            OFFSET 0 0 0
          }
        }
      }
    }
  }
}
MOTION
Frames: 5
Frame Time: 0.033333
61.832344 76.990348 269.669578 -0.000000 0.000000 -5.714366 -0.000000 0.000000 5.714366 -0.000000 0.000000 0.000000 -0.000000 0.000000 0.000000 0.000000 0.000000 0.000000 -0.000000 0.000000 0.000000 -0.000000 0.000000 0.000000 -0.000000 0.000000 0.000000 -0.000000 0.000000 0.000000 0.000000 0.000000 0.000000 0.000000 0.000000 0.000000 -0.000000 0.000000 0.000000 -0.000000 0.000000 0.000000 -0.000000 0.000000 0.000000 -0.000000 0.000000 0.000000 0.000000 0.000000 0.000000 0.000000 0.000000 0.000000 -0.000000 0.000000 5.714366 -0.000000 0.000000 0.000000 -0.000000 0.000000 0.000000 0.000000 0.000000 0.000000 -0.000000 0.000000 5.714366 -0.000000 0.000000 0.000000 -0.000000 0.000000 0.000000 0.000000 0.000000 0.000000
61.768529 76.971723 269.706909 -0.045058 -0.009910 -5.996755 0.043776 0.014563 5.996745 -0.000000 0.000000 0.000000 -0.000000 0.000000 0.000000 0.000000 0.000000 0.000000 1.166566 -0.928865 0.213788 -0.970382 -0.199474 -0.056812 -0.126683 4.843803 0.991545 5.378452 -7.665271 -0.985903 0.000000 0.000000 0.000000 0.000000 0.000000 0.000000 -0.000000 0.000000 0.000000 -0.320234 -1.807815 -0.091266 13.381426 4.439965 1.809721 -10.823697 0.290587 -3.873407 0.000000 0.000000 0.000000 0.000000 0.000000 0.000000 0.043776 0.014563 5.996745 -0.000000 0.000000 0.000000 -0.000000 0.000000 0.000000 0.000000 0.000000 0.000000 0.043776 0.014563 5.996745 -0.000000 0.000000 0.000000 1.806057 16.838370 -4.751656 0.000000 0.000000 0.000000
61.706275 76.949664 269.746896 -0.092335 -0.025744 -6.227235 0.088997 0.035608 6.227187 -0.000000 0.000000 0.000000 0.339289 0.834280 -0.078656 0.000000 0.000000 0.000000 2.083698 -1.763090 0.421195 -1.732687 -0.422856 -0.094295 -0.708165 8.812761 1.691640 9.090627 -13.181880 -0.994061 0.000000 0.000000 0.000000 0.000000 0.000000 0.000000 -0.613596 -1.169584 -0.344260 0.048885 -2.237457 0.167147 22.213223 7.381099 2.367128 -16.547636 1.197742 -7.194488 0.000000 0.000000 0.000000 0.000000 0.000000 0.000000 0.088997 0.035608 6.227187 -0.000000 0.000000 0.000000 -0.000000 0.000000 0.000000 0.000000 0.000000 0.000000 0.088997 0.035608 6.227187 -0.000000 0.000000 0.000000 6.698161 36.963881 -12.478007 0.000000 0.000000 0.000000
61.645582 76.924172 269.789539 -0.141817 -0.047486 -6.405951 0.135634 0.063012 6.405818 -0.000000 0.000000 0.000000 0.502615 1.144403 -0.118633 0.000000 0.000000 0.000000 2.756309 -2.506986 0.615302 -2.292385 -0.668047 -0.119529 -1.729303 11.948574 2.164495 11.996946 -17.019810 -0.560486 0.000000 0.000000 0.000000 0.000000 0.000000 0.000000 -0.808966 -1.709524 -0.495678 0.062616 -3.088927 0.243168 28.014475 9.038711 2.601378 -19.002277 1.701510 -9.865141 0.000000 0.000000 0.000000 0.000000 0.000000 0.000000 0.135634 0.063012 6.405818 -0.000000 0.000000 0.000000 -0.000000 0.000000 0.000000 0.000000 0.000000 0.000000 0.135634 0.063012 6.405818 -0.000000 0.000000 0.000000 16.622206 54.118199 -24.562332 0.000000 0.000000 0.000000
61.586451 76.895245 269.834837 -0.193494 -0.075116 -6.533088 0.183691 0.096643 6.532806 -0.000000 0.000000 0.000000 0.662001 1.384483 -0.158677 0.000000 0.000000 0.000000 3.188892 -3.164897 0.790598 -2.654800 -0.932712 -0.138523 -3.205995 14.281785 2.445021 14.495919 -19.460222 0.089203 0.000000 0.000000 0.000000 0.000000 0.000000 0.000000 -0.931968 -2.225954 -0.633351 0.069093 -3.757798 0.319145 31.743303 9.634723 2.978874 -19.626678 1.330544 -11.857740 0.000000 0.000000 0.000000 0.000000 0.000000 0.000000 1.011572 -0.026153 6.493817 -0.808684 0.215632 0.040002 -0.000000 0.000000 0.000000 0.000000 0.000000 0.000000 0.676077 0.798261 6.551512 -0.569255 -0.640824 -0.025735 31.218949 64.392237 -40.533620 0.000000 0.000000 0.000000
